<svg xmlns="http://www.w3.org/2000/svg" width="640" height="480" viewBox="0 0 640 480" role="img" aria-label="Mixed indoor and outdoor badminton court cover">
  <defs>
    <linearGradient id="left" x1="0" y1="0" x2="1" y2="1">
      <stop offset="0" stop-color="#075985"/>
      <stop offset="1" stop-color="#0f172a"/>
    </linearGradient>
    <linearGradient id="right" x1="0" y1="0" x2="1" y2="1">
      <stop offset="0" stop-color="#f97316"/>
      <stop offset="1" stop-color="#16a34a"/>
    </linearGradient>
  </defs>
  <rect width="320" height="480" fill="url(#left)"/>
  <rect x="320" width="320" height="480" fill="url(#right)"/>
  <path d="M0 310h640v170H0z" fill="#111827" opacity=".24"/>
  <path d="M65 330h510v110H65zM320 330v110M65 385h510" fill="none" stroke="#fff" stroke-width="7" opacity=".86"/>
  <path d="M90 120h210M340 120h210" stroke="#fff" stroke-width="7" opacity=".22"/>
  <circle cx="480" cy="88" r="42" fill="#fef3c7" opacity=".9"/>
  <path d="M168 200l62 62M230 200l-62 62" stroke="#fff" stroke-width="13" stroke-linecap="round" opacity=".85"/>
  <path d="M408 199l34 58 65 14-45 50 7 67-61-28-61 28 7-67-45-50 65-14z" fill="#fff" opacity=".16"/>
  <text x="40" y="72" fill="#fff" font-family="Arial, sans-serif" font-size="34" font-weight="700">Flexible Court</text>
</svg>
